<?xml version="1.0" encoding="UTF-8" standalone="no"?>
<svg
   height="24px"
   viewBox="0 0 24 24"
   width="24px"
   fill="#000000"
   version="1.1"
   id="svg6"
   sodipodi:docname="warning.svg"
   inkscape:version="1.2.1 (9c6d41e410, 2022-07-14, custom)"
   xmlns:inkscape="http://www.inkscape.org/namespaces/inkscape"
   xmlns:sodipodi="http://sodipodi.sourceforge.net/DTD/sodipodi-0.dtd"
   xmlns="http://www.w3.org/2000/svg"
   xmlns:svg="http://www.w3.org/2000/svg">
  <defs
     id="defs10" />
  <sodipodi:namedview
     id="namedview8"
     pagecolor="#ffffff"
     bordercolor="#666666"
     borderopacity="1.0"
     inkscape:showpageshadow="2"
     inkscape:pageopacity="0.0"
     inkscape:pagecheckerboard="0"
     inkscape:deskcolor="#d1d1d1"
     showgrid="false"
     inkscape:zoom="33.416667"
     inkscape:cx="12.014962"
     inkscape:cy="12.029925"
     inkscape:window-width="1920"
     inkscape:window-height="1011"
     inkscape:window-x="0"
     inkscape:window-y="0"
     inkscape:window-maximized="1"
     inkscape:current-layer="svg6" />
  <path
     d="M0 0h24v24H0V0z"
     fill="none"
     id="path2" />
  <path
     d="m 2.73,21 h 18.53 c 0.77,0 1.25,-0.83 0.87,-1.5 l -9.27,-16 c -0.39,-0.67 -1.35,-0.67 -1.73,0 l -9.27,16 C 1.48,20.17 1.96,21 2.73,21 Z M 13,18 h -2 v -2 h 2 z m -1,-3.863796 c -0.55,0 -1,-0.45 -1,-1 V 9.5886751 c 0,-0.55 0.45,-1 1,-1 0.55,0 1,0.45 1,1 v 3.5475289 c 0,0.55 -0.45,1 -1,1 z"
     id="path4"
     style="fill:#0afdea;fill-opacity:1"
     sodipodi:nodetypes="ssccccscccccsssssss" />
</svg>
