<?xml version="1.0" encoding="UTF-8" standalone="no"?>
<svg
   height="20"
   viewBox="0 0 20 20"
   width="20"
   fill="#000000"
   version="1.1"
   id="svg6"
   sodipodi:docname="lock_open.svg"
   inkscape:version="1.2.1 (9c6d41e410, 2022-07-14, custom)"
   xmlns:inkscape="http://www.inkscape.org/namespaces/inkscape"
   xmlns:sodipodi="http://sodipodi.sourceforge.net/DTD/sodipodi-0.dtd"
   xmlns="http://www.w3.org/2000/svg"
   xmlns:svg="http://www.w3.org/2000/svg">
  <defs
     id="defs10" />
  <sodipodi:namedview
     id="namedview8"
     pagecolor="#ffffff"
     bordercolor="#666666"
     borderopacity="1.0"
     inkscape:showpageshadow="2"
     inkscape:pageopacity="0.0"
     inkscape:pagecheckerboard="0"
     inkscape:deskcolor="#d1d1d1"
     showgrid="false"
     inkscape:zoom="34.625"
     inkscape:cx="11.33574"
     inkscape:cy="9.7039711"
     inkscape:window-width="1920"
     inkscape:window-height="1011"
     inkscape:window-x="0"
     inkscape:window-y="0"
     inkscape:window-maximized="1"
     inkscape:current-layer="svg6" />
  <path
     d="M 0,0 H 24 V 24 H 0 Z"
     fill="none"
     id="path2" />
  <path
     d="m 10,11.357143 c -0.9952379,0 -1.8095236,0.814286 -1.8095236,1.809524 0,0.995238 0.8142857,1.809523 1.8095236,1.809523 0.995238,0 1.809524,-0.814285 1.809524,-1.809523 0,-0.995238 -0.814286,-1.809524 -1.809524,-1.809524 z M 15.428572,6.8333333 H 14.52381 V 5.0238095 C 14.52381,2.5266667 12.497143,0.5 10,0.5 8.0578966,0.77280092 9.2139265,2.4166533 10,2.3095238 c 1.492857,0 2.714286,1.2214286 2.714286,2.7142857 V 6.8333333 H 4.5714288 c -0.9952381,0 -1.8095238,0.8142857 -1.8095238,1.8095238 V 17.690476 C 2.761905,18.685714 3.5761907,19.5 4.5714288,19.5 H 15.428572 c 0.995238,0 1.809523,-0.814286 1.809523,-1.809524 V 8.6428571 c 0,-0.9952381 -0.814285,-1.8095238 -1.809523,-1.8095238 z m 0,9.9523807 c 0,0.497619 -0.407143,0.904762 -0.904762,0.904762 H 5.4761907 c -0.497619,0 -0.9047619,-0.407143 -0.9047619,-0.904762 V 9.547619 c 0,-0.497619 0.4071429,-0.9047619 0.9047619,-0.9047619 H 14.52381 c 0.497619,0 0.904762,0.4071429 0.904762,0.9047619 z"
     id="path4"
     style="fill:#0afdea;stroke-width:0.904762"
     sodipodi:nodetypes="sssssscsccscsssssssssssssssss" />
</svg>
